<?xml version="1.0" encoding="UTF-8"?>
<svg id="Layer_1" data-name="Layer 1" xmlns="http://www.w3.org/2000/svg" viewBox="0 0 492 136">
  <defs>
    <style>
      .cls-1, .cls-2 {
        fill: #fff;
      }

      .cls-2 {
        stroke: #fff;
        stroke-miterlimit: 10;
        stroke-width: .62px;
      }
    </style>
  </defs>
  <g>
    <path class="cls-1" d="M146.62,78.36c-1.82,0-3.69,1.48-4.18,3.3-.49,1.82.59,3.3,2.41,3.3s3.69-1.48,4.18-3.3c.49-1.82-.59-3.3-2.41-3.3Z"/>
    <path class="cls-1" d="M148.47,70.28l-4.87-1.81c-.68-.25-1.6.12-2.1.85l-1.19,1.69c-.43.61-.36,1.32.15,1.62,0,0,.01,0,.02.01.23.13.19.45,0,.71-1.75,2.29-5.13,6.53-6.31,8.18-.19.27-.08.58.21.58,3.25.05,5.54-.48,6.43-.73.25-.07.49-.25.62-.49l3.47-6.06c.18-.32.56-.5.85-.4l.3.09c.69.21,1.58-.17,2.07-.88l.78-1.14c.61-.9.42-1.92-.42-2.23ZM147.62,70.89c-.06.09-.18.14-.27.11-3.07-1.31-4.09-1.65-4.55-1.49-.53.18-1.47,1.41-1.69,2-.14.37.52.77.86.91.04.02.07.05.08.1,0,.05,0,.1-.04.15l-6.49,8.78c-.05.07-.13.11-.19.11-.03,0-.05,0-.07-.02-.08-.04-.09-.15-.02-.24l6.36-8.6c-.35-.17-1.06-.61-.83-1.22.24-.64,1.26-2.05,2.01-2.3.56-.19,1.3,0,4.81,1.5.08.04.1.14.04.24Z"/>
    <path class="cls-1" d="M138.68,50.61c-8.79,4.11-10.64,13.26-10.64,13.26l2.24,1.73s.55-6.28,6.98-11.52c6.44-5.25,15.53-2.22,15.53-2.22,0,0-5.33-5.36-14.11-1.24Z"/>
    <path class="cls-1" d="M117.63,91.76c1.34-3.58,2-5.4,3.16-6.87,1.16-1.47,2.05-1,4.55-.81,3.05.23,8.74.73,16.29-1.63.31-.1.32-.51.01-.47-3.23.49-8.84.78-15.73-.06-2.57-.31-5.16-3.18,2.19-5.17,2.93-.72,5.17-.96,6.7-1.09.17-.01.23-.27.06-.27-3.13-.01-9.18-.29-13.45,2.63-2.59,1.77-3.51,9.45-3.8,13.72Z"/>
    <path class="cls-1" d="M158.32,0c-37.56,0-76.16,30.44-86.22,68-10.06,37.56,12.22,68,49.78,68s76.16-30.44,86.22-68C218.16,30.44,195.88,0,158.32,0ZM191.51,89.99h-36.08l-9.67,36.08h-42.43l9.67-36.08h-36.08l11.37-42.43h36.08l9.67-36.08h42.43l-9.67,36.08h36.08l-11.37,42.43Z"/>
    <path class="cls-1" d="M149.7,77.11c-.23-.08-.49.25-.32.41,2.09,1.98,2.11,6.01-1.05,7.81-3.59,2.05-4.82.37-11.72.1-5.15-.2-9.48,2-11.35,3.13-.23.14-.17.44.08.38,9.45-2.26,12.77-.22,13.66,2.59,1.26,4.01-3.31,8.67-10.88,8.71-8.32.05-9.52-3.74-10.16-4.47-.63,6.3,3.9,9.66,11.72,9.66,10.31,0,18.09-6.24,21.91-16.57,3.3-8.94.31-11.02-1.89-11.75Z"/>
    <path class="cls-1" d="M163.09,32.11c-.78,0-1.58.63-1.79,1.42-.14.51,0,.95.34,1.2-5.67,5.19-14.16,12.17-11.88.01.47-.25.87-.7,1-1.21.21-.78-.26-1.42-1.04-1.42s-1.59.63-1.8,1.42c-.15.56.04,1.04.44,1.27-5.01,12.35-8.64,5.47-11.93-.09.45-.25.82-.69.95-1.19.21-.78-.25-1.42-1.04-1.42s-1.59.63-1.8,1.42c-.21.78.26,1.42,1.04,1.42.1,0,.2-.01.29-.03l-.67,12.05c3.53-2.18,7.51-3.47,11.46-3.47s7.29,1.31,9.65,3.51l5.74-12.09c.08.02.17.03.27.03.78,0,1.59-.64,1.8-1.42.21-.78-.26-1.42-1.04-1.42Z"/>
    <path class="cls-1" d="M146.53,44.63s-.02,0-.02,0c-4.61,0-9.45,1.78-13.61,5-4.17,3.23-7.21,7.56-8.55,12.18l-3.83,13.22c-.25.85.24,1.56,1.09,1.58.01,0,.02,0,.03,0,.84,0,1.71-.67,1.95-1.51l3.83-13.22c2.26-7.81,10.45-14.15,18.26-14.15h.02c7.96.01,12.71,6.5,10.57,14.47l-3.16,11.79c-.23.85.28,1.55,1.13,1.55s1.73-.69,1.96-1.55l3.16-11.79c1.26-4.69.61-9.09-1.81-12.41-2.42-3.32-6.34-5.15-11.02-5.15Z"/>
  </g>
  <g>
    <g>
      <path class="cls-1" d="M244.76,109.78h-13.39v-51.29h13.39v21.83l15-21.83h15.93l-18.34,24.24,21.83,27.05h-17.27l-17.14-22.43v22.43Z"/>
      <path class="cls-1" d="M285.4,109.78v-51.29h13.39v51.29h-13.39Z"/>
      <path class="cls-1" d="M323.63,109.78h-13.39v-51.29h13.39l23.97,30.4v-30.4h12.99v51.29h-13.39l-23.57-30.6v30.6Z"/>
      <path class="cls-1" d="M395.94,56.62c10.31,0,17.88,4.02,23.17,12.85l-10.71,5.89s-3.48-7.1-12.59-7.1-12.72,7.16-12.72,16.47c0,8.7,4.02,15.67,13.93,15.67,5.69,0,10.91-4.35,11.38-9.11h-11.78v-10.71h25.71v2.81c0,15.2-7.03,28.25-26.25,28.25-16.34,0-26.78-12.52-26.78-27.45,0-15.73,11.72-27.58,26.65-27.58Z"/>
    </g>
    <g>
      <path class="cls-1" d="M235.96,44.01h-4.6v-17.61h7.86c3.13,0,5.54,2.14,5.54,5.91s-2.41,5.56-5.4,5.56h-3.4v6.14ZM235.87,34.49h1.61c1.4,0,2.71-.44,2.71-2.37,0-1.75-1.15-2.25-2.67-2.25h-1.65v4.62Z"/>
      <path class="cls-1" d="M247.5,26.4h4.6v6.62h6.44v-6.62h4.6v17.61h-4.6v-7.15h-6.44v7.15h-4.6v-17.61Z"/>
      <path class="cls-1" d="M265.57,44.01l6.53-17.58,5.26-.02,6.53,17.61h-4.96l-1.2-3.26h-6.09l-1.17,3.26h-4.9ZM272.78,37.2h3.75l-1.86-5.38-1.88,5.38Z"/>
      <path class="cls-1" d="M290.99,37.8v6.21h-4.6v-17.61h7.01c3.13,0,6.02,1.77,6.02,5.52,0,2.41-1.06,4.05-3.03,4.8.46.67,4.71,7.29,4.71,7.29h-5.49s-3.19-5.4-3.7-6.21h-.92ZM290.89,34.33h1.47c1.26,0,2.37-.53,2.37-2.21,0-1.49-.8-2.21-2.32-2.21h-1.52v4.41Z"/>
      <path class="cls-1" d="M301.54,44.01l2.76-17.61h4.46l3.72,9.61,3.68-9.61h4.64l2.8,17.61h-4.69l-1.38-10.11-4,10.11h-2.16l-3.95-10.16-1.24,10.16h-4.64Z"/>
      <path class="cls-1" d="M324.57,44.01l6.53-17.58,5.26-.02,6.53,17.61h-4.96l-1.2-3.26h-6.09l-1.17,3.26h-4.9ZM331.78,37.2h3.75l-1.86-5.38-1.88,5.38Z"/>
      <path class="cls-1" d="M353.5,25.9c1.86,0,3.01.23,4.64,1.1v4.78c-1.06-.87-2.23-1.54-4.41-1.54-2.99,0-4.64,2.18-4.64,5.17,0,2.83,2.09,4.71,4.87,4.71,1.7,0,2.96-.67,4.14-1.45v4.62c-1.45.64-2.6,1.17-4.44,1.17-5.08,0-9.22-3.68-9.22-9.1s3.88-9.47,9.06-9.47Z"/>
      <path class="cls-1" d="M365.5,26.4l3.31,5.42,3.26-5.42h5.52l-6.53,9.79v7.81h-4.51v-7.72l-6.76-9.88h5.7Z"/>
    </g>
    <g>
      <path class="cls-1" d="M392.35,26.22c5.52,0,9.7,4.07,9.7,9.26,0,5.7-4.32,9.63-9.72,9.63-5.7,0-9.7-4.04-9.7-9.47s4.37-9.42,9.72-9.42ZM387.27,35.71c0,2.99,2.05,5.1,5.03,5.1s5.1-2.16,5.1-5.24c0-2.83-2.16-5.03-5.08-5.03s-5.06,2.18-5.06,5.17Z"/>
      <path class="cls-1" d="M409.63,44.47h-4.6v-17.61h4.6l8.23,10.43v-10.43h4.46v17.61h-4.6l-8.09-10.5v10.5Z"/>
    </g>
    <line class="cls-2" x1="231.37" y1="51.93" x2="422.32" y2="51.93"/>
  </g>
</svg>